# xmcd
#
# Track frame offsets:
#	150
#	14073
#	31916
#	46280
#	64347
#	83103
#	102667
#	123682
#	145816
#	161291
#	178227
#
# Disc length: 2614 seconds
#
# Revision: 196608
# Processed by: cddbd v1.5.2PL0 Copyright (c) Steve Scherf et al.
# Submitted via: EZCDAudioConverter 8.0.7.1
#
DISCID=9b0a340b
DTITLE=Whitney Rose - Rule 62
DYEAR=2017
DGENRE=Country
TTITLE0=I Don't Want Half (I Just Want Out)
TTITLE1=Arizona
TTITLE2=Better To My Baby
TTITLE3=You Never Cross My Mind
TTITLE4=You Don't Scare Me
TTITLE5=Can't Stop Shakin'
TTITLE6=Tied To The Wheel
TTITLE7=Trucker's Funeral
TTITLE8=Wake Me In Wyoming
TTITLE9=You're A Mess
TTITLE10=Time To Cry
EXTD=
EXTT0=
EXTT1=
EXTT2=
EXTT3=
EXTT4=
EXTT5=
EXTT6=
EXTT7=
EXTT8=
EXTT9=
EXTT10=
PLAYORDER=
